<?xml version="1.0" encoding="UTF-8"?>
<svg id="Layer_1" xmlns="http://www.w3.org/2000/svg" version="1.1" viewBox="0 0 350 75">
  <!-- Generator: Adobe Illustrator 30.2.1, SVG Export Plug-In . SVG Version: 2.1.1 Build 1)  -->
  <defs>
    <style>
      .st0, .st1 {
        fill: #eb008b;
      }

      .st2 {
        fill: #fff;
      }

      .st1, .st3 {
        fill-rule: evenodd;
      }

      .st4, .st3 {
        fill: #0094d9;
      }
    </style>
  </defs>
  <path class="st1" d="M318.79,58.59v2.22h9.53c.66,0,1.35-.09,1.97-.33.31-.13.77-.36.77-.75,0-.42-.44-.64-.78-.79-.62-.26-1.3-.35-1.97-.35h-9.53ZM330.31,51.17c-.63-.27-1.31-.37-1.99-.37h-9.53v2.5h9.53c.68,0,1.36-.11,1.99-.4.39-.18.76-.41.76-.88s-.38-.67-.75-.84M124.91,66.15h-5.3v-20.62h5.3v20.62ZM139.03,50.83v15.32h-5.27v-15.32h-7.34v-5.3h19.92v5.3h-7.31ZM153.02,54.75v11.4h-5.28v-17.99c0-.63.18-1.23.56-1.74.44-.59,1.1-.89,1.84-.89,1.01,0,1.88.56,2.58,1.25l10.13,10.16v-11.41h5.3v17.99c0,1.45-.61,2.83-2.26,2.83-1.07,0-2.01-.68-2.74-1.41l-10.13-10.18ZM208.81,60.41c.41-.28.63-.6.63-1.11s-.22-.79-.64-1.05c-.53-.31-1.14-.42-1.75-.42h-8.75c-1.73,0-3.36-.46-4.71-1.57-1.43-1.18-2.12-2.76-2.12-4.6s.7-3.41,2.12-4.58c1.35-1.11,2.97-1.57,4.71-1.57h15.02v5.3h-15.02c-.35,0-.67.07-.94.29-.19.16-.26.33-.26.58s.05.41.24.56c.28.21.61.28.96.28h8.75c1.92,0,3.7.54,5.16,1.8,1.52,1.32,2.23,3.05,2.23,5.05s-.7,3.73-2.24,5.03c-1.47,1.24-3.25,1.74-5.15,1.74h-15.19v-5.3h15.19c.62,0,1.22-.12,1.76-.43M232.79,60.41c.41-.28.63-.6.63-1.11s-.22-.79-.64-1.05c-.53-.31-1.14-.42-1.75-.42h-8.75c-1.73,0-3.36-.46-4.71-1.57-1.43-1.18-2.12-2.76-2.12-4.6s.7-3.41,2.12-4.58c1.35-1.11,2.98-1.57,4.71-1.57h15.03v5.3h-15.03c-.35,0-.66.07-.93.29-.19.16-.26.33-.26.58s.05.41.24.56c.28.21.6.28.95.28h8.75c1.92,0,3.7.54,5.16,1.8,1.51,1.32,2.23,3.05,2.23,5.05s-.7,3.73-2.24,5.03c-1.47,1.24-3.25,1.74-5.15,1.74h-15.19v-5.3h15.19c.61,0,1.22-.12,1.75-.43M268.68,66.15h-11.52c-2.88,0-5.41-.94-7.43-3-2.04-2.06-2.95-4.63-2.95-7.52s.88-5.36,2.94-7.32c2.06-1.96,4.62-2.79,7.44-2.79h11.52v5.3h-11.52c-1.41,0-2.65.4-3.66,1.41-1.02,1.01-1.42,2.25-1.42,3.67s.39,2.6,1.4,3.57c1.02.98,2.27,1.37,3.67,1.37h11.52v5.3ZM275.3,60.84h12.77v5.3h-18.07v-20.62h5.3v15.32ZM311.27,56.77c0,2.83-.76,5.58-3.1,7.37-2.11,1.62-5.05,2.01-7.63,2.01h-1.12c-2.59,0-5.52-.39-7.63-2.01-2.34-1.78-3.1-4.53-3.1-7.37v-11.25h5.3v11.25c0,1.42.32,2.85,1.71,3.49,1.17.54,3.56.58,4.84.58,1.2,0,3.01-.1,4.05-.78,1.12-.72,1.37-2.05,1.37-3.29v-11.25h5.3v11.25ZM334.77,55.92c.95,1.03,1.48,2.3,1.48,3.79,0,.98-.25,1.91-.73,2.77-1.61,2.82-4.64,3.65-7.69,3.65h-14.35v-20.63h14.35c2.96,0,5.85.82,7.53,3.44h0s0,.02,0,.02c.58.95.89,1.98.89,3.1,0,1.51-.53,2.81-1.48,3.87M176.89,53.05h11.95v5.3h-11.95v2.5h12.8v5.3h-18.1v-20.62h18.1v5.3h-12.8v2.22ZM105.05,53.05h11.95v5.3h-11.95v7.8h-5.3v-20.62h18.09v5.3h-12.79v2.22Z"/>
  <path class="st4" d="M336.25,21.76h-14.83v4.63h14.83v-4.63ZM337.28,40.08v-5.5h-19.29V14.09h19.25v-5.5h-23.89v31.49h23.92ZM309.57,40.08v-5.5h-14.5c-1.2,0-2.31-.26-3.33-.78-1.02-.52-1.9-1.23-2.63-2.14-.74-.91-1.31-2-1.73-3.27-.42-1.27-.63-2.64-.63-4.11s.21-2.87.63-4.11c.42-1.24.99-2.31,1.73-3.2.74-.9,1.61-1.6,2.63-2.1,1.02-.5,2.13-.76,3.33-.76h14.5v-5.5h-14.5c-1.87,0-3.59.37-5.17,1.1-1.58.74-2.96,1.78-4.12,3.12-1.17,1.34-2.07,2.97-2.72,4.87-.65,1.91-.98,4.01-.98,6.32s.32,4.4.98,6.37c.65,1.96,1.56,3.66,2.72,5.09,1.17,1.43,2.54,2.56,4.12,3.38,1.58.82,3.31,1.23,5.17,1.23h14.5ZM273.87,39.3c.66.78,1.37,1.17,2.14,1.17.69,0,1.24-.29,1.67-.87.43-.58.64-1.39.64-2.43V8.33h-4.45v23.04l-18.88-22.04c-.34-.4-.68-.69-.99-.87-.32-.17-.65-.26-.99-.26-.74,0-1.32.3-1.75.89-.43.59-.64,1.39-.64,2.4v28.58h4.45v-23.04l18.81,22.26ZM247.85,40.08l-15.42-30.14c-.27-.55-.58-.98-.94-1.3-.36-.32-.79-.48-1.31-.48s-.96.16-1.33.48c-.37.32-.69.75-.96,1.3l-15.38,30.14h5.34l12.15-24.17,5.96,11.78h-8.21l-2.21,4.46h12.66l4.01,7.93h5.63ZM210.01,40.08v-18.32h-16.78v4.63h12.07v8.19h-11.45c-1.2,0-2.31-.26-3.33-.78-1.02-.52-1.9-1.23-2.63-2.14-.74-.91-1.31-2-1.73-3.27-.42-1.27-.63-2.64-.63-4.11s.21-2.87.63-4.11c.42-1.24.99-2.31,1.73-3.2.74-.9,1.61-1.6,2.63-2.1,1.02-.5,2.13-.76,3.33-.76h14.5v-5.5h-14.5c-1.87,0-3.59.37-5.17,1.1-1.58.74-2.96,1.78-4.12,3.12-1.17,1.34-2.07,2.97-2.72,4.87-.65,1.91-.98,4.01-.98,6.32s.33,4.4.98,6.37c.65,1.96,1.56,3.66,2.72,5.09,1.17,1.43,2.54,2.56,4.12,3.38,1.58.82,3.31,1.23,5.17,1.23h16.16ZM176.59,21.76h-14.83v4.63h14.83v-4.63ZM177.62,40.08v-5.5h-19.29V14.09h19.25v-5.5h-23.89v31.49h23.92ZM150.35,40.08v-5.5h-18V8.59h-4.67v31.49h22.67ZM122.64,21.76h-14.83v4.63h14.83v-4.63ZM123.67,40.08v-5.5h-19.29V14.09h19.25v-5.5h-23.89v31.49h23.92Z"/>
  <path class="st4" d="M23.75,24.42c-1.6,0-.58-1.38-.48-1.94.38-2.07,1.14-4.05,2.42-5.74.64-.84,1.57-1.46,2.66-1.8,3.39-1.06,6.55-.84,9.18,1.77,1.09,1.08,1.51,2.61,1.52,4.11,0,1.27.83,1.9,1.54,2.68,1.7,1.88,4.18,2.11,6.36,2.97.24.09.15.25.05.4-.87,1.29-1.93,2.36-3.19,3.33-1.31,1-2.32,2.39-3.46,3.6-.62.66-.67-.2-.93-.38-.89-.62-1.32-1.89-2.62-1.93-1.13-.03-1.63.9-2.15,1.66-.75,1.08-1.42,1.08-2.38.24-.72-.63-1.79-.85-2.65-1.36-.41-.24-.66-.22-1.13-.15-.75.11-.78-.76-.93-1.33-.3-1.16-.38-2.34-1.63-3.12-.84-.52-1.07-1.69-1.4-2.66-.07-.21-.15-.48-.76-.34"/>
  <path class="st2" d="M14.98,45.24c2.17,1.75,4.35,3.47,6.49,5.25,3.74,3.1,6.1,6.87,5.68,11.95,0,.08.02.17.04.25.05-.08.13-.15.14-.23.07-1.08.16-2.16.18-3.24.03-1.24.48-2.31,1.48-2.98,3.26-2.17,4.66-5.4,5.36-9.06.08-.43.29-.83.44-1.24.32.38.74.72.94,1.16,1.8,3.79,1.04,7.27-1.68,10.24-1.95,2.13-4.21,3.98-6.38,5.9-.63.56-1.33.28-1.82-.34-3.7-4.65-7.49-9.24-11.04-14.01-1.08-1.45-1.53-3.36-2.25-5.07-.08-.19.02-.44.03-.67.25.09.54.12.75.28.25.19.44.47.65.71.33.37.66.74.99,1.1M27.1,62.91s0,.03-.01.04c.02,0,.03,0,.05,0,0-.02,0-.03,0-.04,0,0-.02,0-.03,0"/>
  <path class="st2" d="M49.8,38.6c-.18,4.1-2.84,7.2-6.92,7.75-.46.06-1.29-.27-1.42-.62-.63-1.67-1.21-3.38-1.54-5.12-.26-1.33-.35-2.78-.11-4.1.18-.98.89-1.98,1.62-2.72,1.32-1.35,2.85-2.49,4.26-3.75.51-.46.89-1.08,1.39-1.56.31-.3.73-.47,1.09-.7.07.35.16.7.2,1.05.21,1.69.39,3.38.63,5.06.23,1.58.53,3.15.8,4.72"/>
  <path class="st2" d="M50.1,35.59c-.14-.25-.28-.5-.31-.76-.28-2.33-.53-4.67-.7-7.01-.01-.2.74-.67,1.08-.62,1.07.15,2.16.4,3.17.78,3.89,1.49,6.2,4.24,6.52,8.5.05.67.23,1.34.26,2.02.01.23-.25.68-.37.68-1.97-.06-3.99.47-5.88-.48-1.27-.64-1.92-1.21-2.96-2.07-.25-.2-.65-.77-.8-1.04"/>
  <path class="st2" d="M53.39,38.85c.72.51,1.44,1.02,2.15,1.54.33.33.65.66.98.99.7,1.33,1.78,2.59,2.02,4,.36,2.08.42,4.29-.53,6.34-.53,1.13-1.21,1.24-1.97.28-3.02-3.79-4.58-8.22-5.53-12.9-.18-.89-.43-1.76-.59-2.65-.02-.12.17-.13.32-.29h0c.14.16.24.31.39.48h0c.75.71,1.9,1.58,2.77,2.2"/>
  <path class="st2" d="M55.66,63.03c-.7-.21-.75-.63-.56-1.84.39-2.61,1.31-5.02,2.94-7.1,1.21-1.53,2.96-2.16,4.8-2.51.15-.03.49.26.55.47.91,2.89-.9,8.46-3.41,10.24-1.46,1.03-2.71,1.24-4.32.75"/>
  <path class="st2" d="M50.82,54.04c.03,2.9-1.46,5.01-3.37,6.92-.12.12-.38.24-.49.19-.13-.06-.23-.31-.24-.49-.14-1.84-.08-3.66.83-5.34.05-.09-.13-.31-.22-.45-.16-.25-.44-.47-.49-.73-.32-1.75-.56-3.53-.93-5.27-.07-.32-.62-.56-.96-.81-1.09-.81-1.01-1.13.14-1.81,1.16-.69,2.27-1.49,3.29-2.37.62-.54.85-.24.97.25.21.91.3,1.85.43,2.78.35,2.38.69,4.77,1.03,7.15"/>
  <path class="st2" d="M76.01,53.8c-.01-3.53,1.65-6.16,3.84-8.52,1.58-1.71,3.25-3.34,4.89-4.99.24-.24.59-.38.89-.56,0,.4.12.88-.05,1.2-2.36,4.42-4.75,8.82-7.14,13.23-.51.94-1.01,1.88-1.54,2.81-.09.16-.34.24-.51.36-.06-.17-.17-.34-.19-.51-.08-1.05-.14-2.1-.19-3"/>
  <path class="st2" d="M55.82,40.35c-.13-.22-.27-.45-.4-.67.25-.04.5-.1.74-.1,4.21,0,6.19,1.81,6.89,6.35.21,1.39.33,2.8.36,4.2,0,.33-.47.94-.77.97-1.38.16-2.56.65-3.59,1.56-.1.09-.27.09-.4.14-.02-.14-.08-.28-.06-.4.2-1.34.48-2.68.59-4.03.23-2.74-.62-5.14-2.54-7.13-.27-.29-.55-.59-.82-.88"/>
  <path class="st2" d="M68.7,62.08c-.42,4.18-9.73,4.38-13.14,3.79-2.6-.44-5.19-1.52-7.72-1.79-1.18-.12-2.39-.04-3.58-.08-.23,0-.45-.15-.68-.23.18-.18.33-.4.53-.52,3.59-2.15,7.22-1.36,10.92-.26,3.17.94,6.46,1.13,9.77.79.35-.1.73-.15,1.06-.31.95-.45,1.89-.93,2.83-1.4"/>
  <path class="st2" d="M43,53.59c0-.31.07-.63-.02-.91-.1-.3.9-1.46-.57-.82-.08.04-.29-.05-.34-.13-.59-1.01-1.34-1.98-.99-3.28.37-1.4,1.66-1.8,2.78-.87,1.2,1,1.78,2.18,1.81,3.82.02,1.17.7,2.33.99,3.51.12.47.04,1.01-.04,1.5-.2,1.22-.38,2.46-.71,3.65-.23.85-.67,1.65-1.06,2.44-.08.16-.36.23-.55.34-.06-.19-.18-.38-.17-.56.07-1.94.15-3.88.24-5.83.02-.38.27-.94-.56-.61-.1.04-.55-.56-.67-.91-.14-.42-.1-.9-.13-1.35"/>
  <path class="st2" d="M26.62,53.47c.12-3.66,2.1-7.59,6.59-7.93.61-.05,1.02.12.85.84-.25,1.09-.54,2.16-.8,3.25-.42,1.7-1.59,2.74-3.08,3.47-.74.37-1.52.65-2.27.99-.94.42-1.48.3-1.29-.62"/>
  <path class="st2" d="M75.83,55.33c0,.88,0,1.4,0,1.91,0,.18-.07.35-.11.53-.18-.07-.37-.1-.52-.2-3.56-2.46-5.4-5.89-5.7-10.17-.05-.77,0-1.55.01-2.32,0-.11.12-.21.18-.32.07.08.15.16.21.24,1.12,1.32,2.15,2.74,3.39,3.93,1.95,1.88,2.73,4.11,2.55,6.39"/>
  <path class="st2" d="M30.36,45.23c-.06-3.41,1.81-5.8,4.11-8,.86-.82,1.57-1.79,2.41-2.63.19-.19.63-.15.95-.14.1,0,.24.26.28.41.71,3.1-.56,5.34-3.02,7.14-1.22.89-2.27,2-3.4,3.01-.21.18-.4.39-.62.54-.19.13-.42.2-.64.29-.02-.2-.04-.41-.06-.61"/>
  <path class="st2" d="M41.08,46.46c-.17.5-.28,1.16-.59,1.7-.84,1.51-2.07,1.61-3.23.35-2.03-2.22-2.08-3.38-.64-6.03.73-1.34,1.12-2.85,1.67-4.28.07-.18.22-.32.33-.48.14.18.38.35.39.54.17,2.45.76,4.79,1.81,7.01.15.31.15.69.26,1.19"/>
  <path class="st2" d="M72.36,39.88c0,.32.03.65,0,.97-.03.22-.14.44-.22.65-.22-.12-.49-.19-.67-.36-1.44-1.33-2.96-2.59-4.28-4.04-1.21-1.34-2.22-2.87-3.26-4.36-.17-.25-.07-.69-.06-1.05,0-.02.27-.1.37-.05,1.18.55,2.33,1.22,3.55,1.67,3.53,1.32,4.59,2.77,4.58,6.56"/>
  <path class="st2" d="M69.82,40.95c-1.45-.34-2.77-.75-4.12-.96-1.37-.21-2.77-.2-4.15-.35-.21-.02-.49-.37-.54-.61-.16-.71-.22-1.43-.32-2.15-.2-1.51-.03-1.64,1.37-1.19,2.51.81,4.93,1.81,6.97,3.54.35.29.7.58,1.01.91.13.14.25.41.2.57-.03.13-.33.18-.42.23"/>
  <path class="st2" d="M68.76,41.16c3.65.03,5.4,1.83,5.78,5.76.05.46,0,.93,0,1.4-.54-.12-1.12-.15-1.62-.36-1.67-.7-2.23-2.25-2.88-3.78-.32-.75-.91-1.39-1.37-2.08-.16-.24-.3-.49-.45-.73.25-.1.5-.19.54-.21"/>
  <path class="st2" d="M40.23,49.13c.1.07.25.12.3.22.91,1.93,2.3,3.68,2.11,6.02-.03.34.29.73.52,1.06.28.4.63.75.96,1.12-.1.06-.21.13-.31.19,0,1.6,0,3.2-.01,4.8,0,.13-.17.25-.26.38-1.02-.97-.74-3.05-.72-4.41-2.1-1.85-1.71-3.39-1.83-4.83-.03-.32-.12-.28-.39-.75-.63-1.08-.83-1.84-.52-3.41.02-.13.03-.34.16-.39"/>
  <path class="st3" d="M17.82,37c2.3,0,4.16,1.86,4.16,4.16s-1.86,4.16-4.16,4.16-4.16-1.86-4.16-4.16,1.86-4.16,4.16-4.16"/>
  <path class="st1" d="M82.18,33.51c1.9,0,3.44,1.54,3.44,3.44s-1.54,3.44-3.44,3.44-3.44-1.54-3.44-3.44,1.54-3.44,3.44-3.44"/>
  <path class="st0" d="M64.09,47.4c-.27-2.52-1.08-4.81-2.83-6.72-.13-.14-.15-.37-.23-.56.17-.05.34-.15.5-.13,1.48.22,3,.33,4.44.73,2.39.67,3.53,3.07,2.84,5.44-.56,1.95-1,3.94-1.49,5.91-.06.26-.17.52-.16.78.03.83.1,1.65.16,2.48.42,1.73.83,3.47,1.25,5.2v.03s.03,0,.03,0c0,.02.01.04.04.03-.13.36-.17.88-.42,1.04-1,.62-2.07,1.14-3.12,1.69-.03,0-.06,0-.09.01-.39.06-.78.13-1.16.19-.69.03-1.39.07-2.08.06-.22,0-.58-.11-.62-.24-.06-.2.06-.49.18-.7.71-1.22,1.45-2.42,2.17-3.63.03-.1.07-.2.1-.31.22-1.37.45-2.73.67-4.1.04-.09.1-.18.1-.27.01-1.83.02-3.65.01-5.48,0-.04-.09-.07-.13-.11-.01-.14-.03-.28-.04-.43-.05-.31-.09-.63-.14-.94"/>
  <path class="st0" d="M50.69,49.72c-.03-.23-.06-.47-.09-.7-.05-.34-.11-.68-.16-1.02-.24-1.76-.49-3.52-.71-5.28-.02-.17.12-.36.19-.54.14.12.36.22.4.37,1.15,4.04,3.35,7.49,5.9,10.75.04.05.05.12.08.18.06.47.11.95.17,1.42-1.02,2.34-1.86,4.85-4.6,5.8-1,.35-2.07.48-3.12.69-.15.03-.33-.06-.5-.09.06-.17.08-.37.18-.52.4-.59.83-1.16,1.24-1.74.05-.09.1-.17.15-.26,1.42-2.64,1.32-5.45.97-8.3-.03-.25-.07-.51-.1-.76"/>
  <path class="st0" d="M62.57,28.84c.17,2.11,1.06,4.1,2.06,6.06.11.23.22.46.33.69-.35-.03-.75.03-1.05-.1-1.84-.8-3.22-2.03-4.33-3.79-1.09-1.71-2.58-3.24-4.64-3.94-.51-.17-.54-.34-.13-.8,1.26-1.43,1.16-3.53.13-5.2-1.33-2.16-1.61-4.35.02-6.79.36-.53.73-.99,1.26-1.35.06-.04.04-.2.05-.3-.21-.03-.45-.13-.64-.08-1.75.46-2.25,1.85-2.29,3.41-.04,1.41-.55,2.65-1.25,3.77-.84,1.34-2.24,1.98-3.78,2.24-.12.02-.28-.14-.41-.21.1-.17.18-.37.31-.5,1.76-1.73,2.14-3.92,2.02-6.23-.09-1.71-1.06-3.33-.22-5.13.69-1.49,3.29-2.75,4.9-2.27,1.38.41,2.41,1.22,3.21,2.38.8,1.17,1.54.06,2.25-.12,2.28-.58,4.37-.2,6.4.92,1.34.74,2.51,1.71,2.74,3.25.2,1.29-.24,2.7.02,3.96.27,1.26-1.09,1.88-.82,3.01.16.67.24,1.37.44,2.03.22.72.02,1.09-.72,1.15-.57.04-.5.49-.59.84-.22.89-1.18,1.27-1.39,2.28-.11.54-1.21.42-1.91.1-.52-.23-1.11-.52-1.64-.47-.47.05-.23.68-.3,1.2"/>
</svg>