<?xml version="1.0" encoding="UTF-8"?>
<svg id="Layer_1" xmlns="http://www.w3.org/2000/svg" version="1.1" viewBox="0 0 48 48">
  <!-- Generator: Adobe Illustrator 30.2.1, SVG Export Plug-In . SVG Version: 2.1.1 Build 1)  -->
  <defs>
    <style>
      .st0, .st1 {
        fill: #eb008b;
      }

      .st2 {
        fill: #fff;
      }

      .st1, .st3 {
        fill-rule: evenodd;
      }

      .st4, .st3 {
        fill: #0094d9;
      }
    </style>
  </defs>
  <path class="st4" d="M7.47,15.69c-1.04,0-.38-.9-.31-1.27.25-1.35.74-2.64,1.58-3.74.42-.55,1.02-.95,1.73-1.17,2.21-.69,4.27-.55,5.99,1.15.71.7.98,1.7.99,2.68,0,.83.54,1.24,1,1.75,1.11,1.23,2.73,1.38,4.15,1.94.16.06.1.16.03.26-.57.84-1.26,1.54-2.08,2.17-.85.65-1.51,1.56-2.26,2.35-.4.43-.44-.13-.61-.25-.58-.4-.86-1.23-1.71-1.26-.74-.02-1.06.59-1.4,1.08-.49.7-.93.7-1.55.16-.47-.41-1.17-.55-1.73-.89-.27-.16-.43-.14-.74-.1-.49.07-.51-.5-.61-.87-.2-.76-.25-1.53-1.06-2.03-.55-.34-.7-1.1-.91-1.73-.05-.14-.1-.31-.5-.22"/>
  <path class="st2" d="M1.75,29.27c1.42,1.14,2.84,2.26,4.23,3.42,2.44,2.02,3.98,4.48,3.7,7.79,0,.05.01.11.03.16.03-.05.08-.1.09-.15.05-.7.1-1.41.12-2.11.02-.81.31-1.51.97-1.94,2.13-1.42,3.04-3.52,3.5-5.91.05-.28.19-.54.29-.81.21.25.48.47.61.76,1.17,2.47.68,4.74-1.1,6.68-1.27,1.39-2.75,2.6-4.16,3.85-.41.37-.87.18-1.19-.22-2.41-3.03-4.88-6.03-7.2-9.14-.7-.95-1-2.19-1.47-3.31-.05-.12.01-.29.02-.44.16.06.35.08.49.18.16.12.29.31.42.46.22.24.43.48.65.72M9.65,40.79s0,.02,0,.03h.03v-.03h-.02"/>
  <path class="st2" d="M24.46,24.94c-.12,2.67-1.85,4.7-4.51,5.05-.3.04-.84-.18-.93-.4-.41-1.09-.79-2.2-1-3.34-.17-.87-.23-1.81-.07-2.67.12-.64.58-1.29,1.06-1.77.86-.88,1.86-1.62,2.78-2.45.33-.3.58-.7.91-1.02.2-.2.48-.31.71-.46.05.23.1.46.13.68.14,1.1.25,2.2.41,3.3.15,1.03.35,2.05.52,3.08"/>
  <path class="st2" d="M24.65,22.97c-.09-.16-.18-.33-.2-.5-.18-1.52-.35-3.05-.46-4.57,0-.13.48-.44.7-.4.7.1,1.41.26,2.07.51,2.54.97,4.04,2.77,4.25,5.54.03.44.15.87.17,1.32,0,.15-.16.44-.24.44-1.28-.04-2.6.31-3.83-.31-.83-.42-1.25-.79-1.93-1.35-.16-.13-.42-.5-.52-.68"/>
  <path class="st2" d="M26.8,25.1c.47.33.94.67,1.4,1,.22.22.42.43.64.65.46.87,1.16,1.69,1.32,2.61.23,1.36.27,2.8-.35,4.13-.35.74-.79.81-1.28.18-1.97-2.47-2.99-5.36-3.61-8.41-.12-.58-.28-1.15-.38-1.73-.01-.08.11-.08.21-.19h0c.09.1.16.2.25.31h0c.49.46,1.24,1.03,1.81,1.43"/>
  <path class="st2" d="M28.28,40.87c-.46-.14-.49-.41-.37-1.2.25-1.7.85-3.27,1.92-4.63.79-1,1.93-1.41,3.13-1.64.1-.02.32.17.36.31.59,1.88-.59,5.52-2.22,6.68-.95.67-1.77.81-2.82.49"/>
  <path class="st2" d="M25.12,35.01c.02,1.89-.95,3.27-2.2,4.51-.08.08-.25.16-.32.12-.08-.04-.15-.2-.16-.32-.09-1.2-.05-2.39.54-3.48.03-.06-.08-.2-.14-.29-.1-.16-.29-.31-.32-.48-.21-1.14-.37-2.3-.61-3.44-.05-.21-.4-.37-.63-.53-.71-.53-.66-.74.09-1.18.76-.45,1.48-.97,2.15-1.55.4-.35.55-.16.63.16.14.59.2,1.21.28,1.81.23,1.55.45,3.11.67,4.66"/>
  <path class="st2" d="M41.55,34.85c0-2.3,1.08-4.02,2.5-5.56,1.03-1.12,2.12-2.18,3.19-3.25.16-.16.38-.25.58-.37,0,.26.08.57-.03.78-1.54,2.88-3.1,5.75-4.66,8.63-.33.61-.66,1.23-1,1.83-.06.1-.22.16-.33.23-.04-.11-.11-.22-.12-.33-.05-.68-.09-1.37-.12-1.96"/>
  <path class="st2" d="M28.38,26.08c-.08-.14-.18-.29-.26-.44.16-.03.33-.07.48-.07,2.75,0,4.04,1.18,4.49,4.14.14.91.22,1.83.23,2.74,0,.22-.31.61-.5.63-.9.1-1.67.42-2.34,1.02-.07.06-.18.06-.26.09-.01-.09-.05-.18-.04-.26.13-.87.31-1.75.38-2.63.15-1.79-.4-3.35-1.66-4.65-.18-.19-.36-.38-.53-.57"/>
  <path class="st2" d="M36.78,40.25c-.27,2.73-6.35,2.86-8.57,2.47-1.7-.29-3.38-.99-5.03-1.17-.77-.08-1.56-.03-2.33-.05-.15,0-.29-.1-.44-.15.12-.12.22-.26.35-.34,2.34-1.4,4.71-.89,7.12-.17,2.07.61,4.21.74,6.37.52.23-.07.48-.1.69-.2.62-.29,1.23-.61,1.85-.91"/>
  <path class="st2" d="M20.02,34.71c0-.2.05-.41-.01-.59-.07-.2.59-.95-.37-.53-.05.03-.19-.03-.22-.08-.38-.66-.87-1.29-.65-2.14.24-.91,1.08-1.17,1.81-.57.78.65,1.16,1.42,1.18,2.49.01.76.46,1.52.65,2.29.08.31.03.66-.03.98-.13.8-.25,1.6-.46,2.38-.15.55-.44,1.08-.69,1.59-.05.1-.23.15-.36.22-.04-.12-.12-.25-.11-.37.05-1.27.1-2.53.16-3.8.01-.25.18-.61-.37-.4-.07.03-.36-.37-.44-.59-.09-.27-.07-.59-.08-.88"/>
  <path class="st2" d="M9.34,34.63c.08-2.39,1.37-4.95,4.3-5.17.4-.03.67.08.55.55-.16.71-.35,1.41-.52,2.12-.27,1.11-1.04,1.79-2.01,2.26-.48.24-.99.42-1.48.65-.61.27-.97.2-.84-.4"/>
  <path class="st2" d="M41.43,35.85v1.25c0,.12-.05.23-.07.35-.12-.05-.24-.07-.34-.13-2.32-1.6-3.52-3.84-3.72-6.63-.03-.5,0-1.01,0-1.51,0-.07.08-.14.12-.21.05.05.1.1.14.16.73.86,1.4,1.79,2.21,2.56,1.27,1.23,1.78,2.68,1.66,4.17"/>
  <path class="st2" d="M11.78,29.26c-.04-2.22,1.18-3.78,2.68-5.22.56-.53,1.02-1.17,1.57-1.72.12-.12.41-.1.62-.09.07,0,.16.17.18.27.46,2.02-.37,3.48-1.97,4.66-.8.58-1.48,1.3-2.22,1.96-.14.12-.26.25-.4.35-.12.08-.27.13-.42.19-.01-.13-.03-.27-.04-.4"/>
  <path class="st2" d="M18.77,30.06c-.11.33-.18.76-.38,1.11-.55.98-1.35,1.05-2.11.23-1.32-1.45-1.36-2.2-.42-3.93.48-.87.73-1.86,1.09-2.79.05-.12.14-.21.22-.31.09.12.25.23.25.35.11,1.6.5,3.12,1.18,4.57.1.2.1.45.17.78"/>
  <path class="st2" d="M39.17,25.77c0,.21.02.42,0,.63-.02.14-.09.29-.14.42-.14-.08-.32-.12-.44-.23-.94-.87-1.93-1.69-2.79-2.63-.79-.87-1.45-1.87-2.13-2.84-.11-.16-.05-.45-.04-.68,0-.01.18-.07.24-.03.77.36,1.52.8,2.32,1.09,2.3.86,2.99,1.81,2.99,4.28"/>
  <path class="st2" d="M37.51,26.47c-.95-.22-1.81-.49-2.69-.63-.89-.14-1.81-.13-2.71-.23-.14-.01-.32-.24-.35-.4-.1-.46-.14-.93-.21-1.4-.13-.98-.02-1.07.89-.78,1.64.53,3.22,1.18,4.55,2.31.23.19.46.38.66.59.08.09.16.27.13.37-.02.08-.22.12-.27.15"/>
  <path class="st2" d="M36.82,26.61c2.38.02,3.52,1.19,3.77,3.76.03.3,0,.61,0,.91-.35-.08-.73-.1-1.06-.23-1.09-.46-1.45-1.47-1.88-2.47-.21-.49-.59-.91-.89-1.36-.1-.16-.2-.32-.29-.48.16-.07.33-.12.35-.14"/>
  <path class="st2" d="M18.22,31.8c.07.05.16.08.2.14.59,1.26,1.5,2.4,1.38,3.93-.02.22.19.48.34.69.18.26.41.49.63.73-.07.04-.14.08-.2.12,0,1.04,0,2.09,0,3.13,0,.08-.11.16-.17.25-.67-.63-.48-1.99-.47-2.88-1.37-1.21-1.12-2.21-1.19-3.15-.02-.21-.08-.18-.25-.49-.41-.7-.54-1.2-.34-2.22.01-.08.02-.22.1-.25"/>
  <path class="st3" d="M3.6,23.89c1.5,0,2.71,1.21,2.71,2.71s-1.21,2.71-2.71,2.71-2.71-1.21-2.71-2.71,1.21-2.71,2.71-2.71"/>
  <path class="st1" d="M45.57,21.62c1.24,0,2.24,1,2.24,2.24s-1,2.24-2.24,2.24-2.24-1-2.24-2.24,1-2.24,2.24-2.24"/>
  <path class="st0" d="M33.78,30.67c-.18-1.64-.7-3.14-1.85-4.38-.08-.09-.1-.24-.15-.37.11-.03.22-.1.33-.08.97.14,1.96.22,2.9.48,1.56.44,2.3,2,1.85,3.55-.37,1.27-.65,2.57-.97,3.85-.04.17-.11.34-.1.51.02.54.07,1.08.1,1.62.27,1.13.54,2.26.82,3.39v.02h.02s0,.03.03.02c-.08.23-.11.57-.27.68-.65.4-1.35.74-2.03,1.1-.02,0-.04,0-.06,0-.25.04-.51.08-.76.12-.45.02-.91.05-1.36.04-.14,0-.38-.07-.4-.16-.04-.13.04-.32.12-.46.46-.8.95-1.58,1.42-2.37.02-.07.05-.13.07-.2.14-.89.29-1.78.44-2.67.03-.06.07-.12.07-.18,0-1.19.01-2.38,0-3.57,0-.03-.06-.05-.08-.07,0-.09-.02-.18-.03-.28-.03-.2-.06-.41-.09-.61"/>
  <path class="st0" d="M25.04,32.19c-.02-.15-.04-.31-.06-.46-.03-.22-.07-.44-.1-.67-.16-1.15-.32-2.3-.46-3.44-.01-.11.08-.23.12-.35.09.08.23.14.26.24.75,2.63,2.18,4.88,3.85,7.01.03.03.03.08.05.12.04.31.07.62.11.93-.67,1.53-1.21,3.16-3,3.78-.65.23-1.35.31-2.03.45-.1.02-.22-.04-.33-.06.04-.11.05-.24.12-.34.26-.38.54-.76.81-1.13.03-.06.07-.11.1-.17.93-1.72.86-3.55.63-5.41-.02-.16-.05-.33-.07-.5"/>
  <path class="st0" d="M32.78,18.57c.11,1.38.69,2.67,1.34,3.95l.22.45c-.23-.02-.49.02-.68-.07-1.2-.52-2.1-1.32-2.82-2.47-.71-1.12-1.68-2.11-3.03-2.57-.33-.11-.35-.22-.08-.52.82-.93.76-2.3.08-3.39-.87-1.41-1.05-2.84.01-4.43.23-.35.48-.65.82-.88.04-.03.03-.13.03-.2-.14-.02-.29-.08-.42-.05-1.14.3-1.47,1.21-1.49,2.22-.03.92-.36,1.73-.82,2.46-.55.87-1.46,1.29-2.47,1.46-.08.01-.18-.09-.27-.14.07-.11.12-.24.2-.33,1.15-1.13,1.4-2.56,1.32-4.06-.06-1.12-.69-2.17-.14-3.35.45-.97,2.15-1.79,3.2-1.48.9.27,1.57.8,2.09,1.55.52.76,1,.04,1.47-.08,1.49-.38,2.85-.13,4.17.6.87.48,1.64,1.12,1.79,2.12.13.84-.16,1.76.01,2.58.18.82-.71,1.23-.53,1.96.1.44.16.89.29,1.32.14.47.01.71-.47.75-.37.03-.33.32-.38.55-.14.58-.77.83-.91,1.49-.07.35-.79.27-1.25.07-.34-.15-.72-.34-1.07-.31-.31.03-.15.44-.2.78"/>
</svg>